<svg xmlns="http://www.w3.org/2000/svg" width="1200" height="820" viewBox="0 0 1200 820">
<rect x="0.0" y="0.0" width="1200.0" height="820.0" rx="0.0" fill="#F6F8FA" stroke="none"/>
<text x="600.0" y="36.0" font-family="Arial, Helvetica, sans-serif" font-size="24" font-weight="700" fill="#333333" text-anchor="middle">PairUAV mechanism evidence behind PACE</text>
<rect x="35.0" y="65.0" width="555.0" height="350.0" rx="8.0" fill="#FFFFFF" stroke="#D0D7DE"/>
<text x="53.0" y="93.0" font-family="Arial, Helvetica, sans-serif" font-size="16" font-weight="700" fill="#333333" text-anchor="start">A. Official-score progression</text>
<line x1="87.0" y1="370.0" x2="556.0" y2="370.0" stroke="#D0D7DE" stroke-width="1.0"/>
<line x1="87.0" y1="120.0" x2="87.0" y2="370.0" stroke="#D0D7DE" stroke-width="1.0"/>
<line x1="87.0" y1="370.0" x2="556.0" y2="370.0" stroke="#E5E7EB" stroke-width="1.0"/>
<text x="79.0" y="374.0" font-family="Arial, Helvetica, sans-serif" font-size="10" font-weight="400" fill="#333333" text-anchor="end">0.0016</text>
<line x1="87.0" y1="245.0" x2="556.0" y2="245.0" stroke="#E5E7EB" stroke-width="1.0"/>
<text x="79.0" y="249.0" font-family="Arial, Helvetica, sans-serif" font-size="10" font-weight="400" fill="#333333" text-anchor="end">0.0025</text>
<line x1="87.0" y1="120.0" x2="556.0" y2="120.0" stroke="#E5E7EB" stroke-width="1.0"/>
<text x="79.0" y="124.0" font-family="Arial, Helvetica, sans-serif" font-size="10" font-weight="400" fill="#333333" text-anchor="end">0.00335</text>
<rect x="110.5" y="143.1" width="64.7" height="226.9" rx="2.0" fill="#9AA0A6" stroke="none"/>
<text x="142.8" y="137.1" font-family="Arial, Helvetica, sans-serif" font-size="10" font-weight="400" fill="#333333" text-anchor="middle">0.0032</text>
<text x="142.8" y="390.0" font-family="Arial, Helvetica, sans-serif" font-size="10" font-weight="400" fill="#333333" text-anchor="middle">MARB</text>
<rect x="204.2" y="247.1" width="64.7" height="122.9" rx="2.0" fill="#0072B2" stroke="none"/>
<text x="236.6" y="241.1" font-family="Arial, Helvetica, sans-serif" font-size="10" font-weight="400" fill="#333333" text-anchor="middle">0.0025</text>
<text x="236.6" y="390.0" font-family="Arial, Helvetica, sans-serif" font-size="10" font-weight="400" fill="#333333" text-anchor="middle">MDHR</text>
<rect x="298.0" y="239.4" width="64.7" height="130.6" rx="2.0" fill="#009E73" stroke="none"/>
<text x="330.4" y="233.4" font-family="Arial, Helvetica, sans-serif" font-size="10" font-weight="400" fill="#333333" text-anchor="middle">0.0025</text>
<text x="330.4" y="390.0" font-family="Arial, Helvetica, sans-serif" font-size="10" font-weight="400" fill="#333333" text-anchor="middle">PAAER raw</text>
<rect x="391.8" y="253.9" width="64.7" height="116.1" rx="2.0" fill="#E69F00" stroke="none"/>
<text x="424.2" y="247.9" font-family="Arial, Helvetica, sans-serif" font-size="10" font-weight="400" fill="#333333" text-anchor="middle">0.0024</text>
<text x="424.2" y="390.0" font-family="Arial, Helvetica, sans-serif" font-size="10" font-weight="400" fill="#333333" text-anchor="middle">RSF e230</text>
<rect x="485.6" y="330.9" width="64.7" height="39.1" rx="2.0" fill="#D55E00" stroke="none"/>
<text x="518.0" y="324.9" font-family="Arial, Helvetica, sans-serif" font-size="10" font-weight="400" fill="#333333" text-anchor="middle">0.0019</text>
<text x="518.0" y="390.0" font-family="Arial, Helvetica, sans-serif" font-size="10" font-weight="400" fill="#333333" text-anchor="middle">PACE final</text>
<text x="321.5" y="403.0" font-family="Arial, Helvetica, sans-serif" font-size="11" font-weight="400" fill="#333333" text-anchor="middle">final_score (lower is better)</text>
<rect x="610.0" y="65.0" width="555.0" height="350.0" rx="8.0" fill="#FFFFFF" stroke="#D0D7DE"/>
<text x="628.0" y="93.0" font-family="Arial, Helvetica, sans-serif" font-size="16" font-weight="700" fill="#333333" text-anchor="start">B. Axis-objective controls</text>
<line x1="672.0" y1="370.0" x2="1127.0" y2="370.0" stroke="#D0D7DE" stroke-width="1.0"/>
<line x1="672.0" y1="120.0" x2="672.0" y2="370.0" stroke="#D0D7DE" stroke-width="1.0"/>
<line x1="681.3" y1="120.0" x2="681.3" y2="370.0" stroke="#E5E7EB" stroke-width="1.0"/>
<text x="681.3" y="387.0" font-family="Arial, Helvetica, sans-serif" font-size="10" font-weight="400" fill="#333333" text-anchor="middle">1</text>
<line x1="883.5" y1="120.0" x2="883.5" y2="370.0" stroke="#E5E7EB" stroke-width="1.0"/>
<text x="883.5" y="387.0" font-family="Arial, Helvetica, sans-serif" font-size="10" font-weight="400" fill="#333333" text-anchor="middle">10</text>
<line x1="1085.7" y1="120.0" x2="1085.7" y2="370.0" stroke="#E5E7EB" stroke-width="1.0"/>
<text x="1085.7" y="387.0" font-family="Arial, Helvetica, sans-serif" font-size="10" font-weight="400" fill="#333333" text-anchor="middle">100</text>
<line x1="672.0" y1="356.8" x2="1127.0" y2="356.8" stroke="#E5E7EB" stroke-width="1.0"/>
<text x="664.0" y="360.8" font-family="Arial, Helvetica, sans-serif" font-size="10" font-weight="400" fill="#333333" text-anchor="end">3</text>
<line x1="672.0" y1="270.0" x2="1127.0" y2="270.0" stroke="#E5E7EB" stroke-width="1.0"/>
<text x="664.0" y="274.0" font-family="Arial, Helvetica, sans-serif" font-size="10" font-weight="400" fill="#333333" text-anchor="end">10</text>
<line x1="672.0" y1="190.8" x2="1127.0" y2="190.8" stroke="#E5E7EB" stroke-width="1.0"/>
<text x="664.0" y="194.8" font-family="Arial, Helvetica, sans-serif" font-size="10" font-weight="400" fill="#333333" text-anchor="end">30</text>
<circle cx="732.5" cy="326.7" r="6.0" fill="#9AA0A6" stroke="white" stroke-width="2"/>
<text x="740.5" y="320.7" font-family="Arial, Helvetica, sans-serif" font-size="10" font-weight="400" fill="#333333" text-anchor="start">C0</text>
<circle cx="722.3" cy="148.8" r="6.0" fill="#56B4E9" stroke="white" stroke-width="2"/>
<text x="730.3" y="142.8" font-family="Arial, Helvetica, sans-serif" font-size="10" font-weight="400" fill="#333333" text-anchor="start">H1</text>
<circle cx="1103.4" cy="343.0" r="6.0" fill="#E69F00" stroke="white" stroke-width="2"/>
<text x="1111.4" y="337.0" font-family="Arial, Helvetica, sans-serif" font-size="10" font-weight="400" fill="#333333" text-anchor="start">R1</text>
<circle cx="716.8" cy="336.7" r="6.0" fill="#009E73" stroke="white" stroke-width="2"/>
<text x="724.8" y="330.7" font-family="Arial, Helvetica, sans-serif" font-size="10" font-weight="400" fill="#333333" text-anchor="start">HR</text>
<circle cx="733.8" cy="316.4" r="6.0" fill="#0072B2" stroke="white" stroke-width="2"/>
<text x="741.8" y="310.4" font-family="Arial, Helvetica, sans-serif" font-size="10" font-weight="400" fill="#333333" text-anchor="start">H8 mid-late</text>
<circle cx="699.9" cy="327.3" r="6.0" fill="#CC79A7" stroke="white" stroke-width="2"/>
<text x="707.9" y="321.3" font-family="Arial, Helvetica, sans-serif" font-size="10" font-weight="400" fill="#333333" text-anchor="start">E1b+E2R</text>
<text x="899.5" y="403.0" font-family="Arial, Helvetica, sans-serif" font-size="11" font-weight="400" fill="#333333" text-anchor="middle">angle MAE (log scale)</text>
<text x="624.0" y="245.0" font-family="Arial, Helvetica, sans-serif" font-size="11" font-weight="400" fill="#333333" text-anchor="start">range MAE</text>
<rect x="35.0" y="440.0" width="555.0" height="350.0" rx="8.0" fill="#FFFFFF" stroke="#D0D7DE"/>
<text x="53.0" y="468.0" font-family="Arial, Helvetica, sans-serif" font-size="16" font-weight="700" fill="#333333" text-anchor="start">C. Geometry utility is axis-asymmetric</text>
<line x1="93.0" y1="745.0" x2="558.0" y2="745.0" stroke="#D0D7DE" stroke-width="1.0"/>
<line x1="93.0" y1="495.0" x2="93.0" y2="745.0" stroke="#D0D7DE" stroke-width="1.0"/>
<line x1="93.0" y1="745.0" x2="558.0" y2="745.0" stroke="#E5E7EB" stroke-width="1.0"/>
<text x="85.0" y="749.0" font-family="Arial, Helvetica, sans-serif" font-size="10" font-weight="400" fill="#333333" text-anchor="end">0</text>
<line x1="93.0" y1="675.6" x2="558.0" y2="675.6" stroke="#E5E7EB" stroke-width="1.0"/>
<text x="85.0" y="679.6" font-family="Arial, Helvetica, sans-serif" font-size="10" font-weight="400" fill="#333333" text-anchor="end">25</text>
<line x1="93.0" y1="606.1" x2="558.0" y2="606.1" stroke="#E5E7EB" stroke-width="1.0"/>
<text x="85.0" y="610.1" font-family="Arial, Helvetica, sans-serif" font-size="10" font-weight="400" fill="#333333" text-anchor="end">50</text>
<line x1="93.0" y1="536.7" x2="558.0" y2="536.7" stroke="#E5E7EB" stroke-width="1.0"/>
<text x="85.0" y="540.7" font-family="Arial, Helvetica, sans-serif" font-size="10" font-weight="400" fill="#333333" text-anchor="end">75</text>
<rect x="111.0" y="536.8" width="24.0" height="208.2" rx="2.0" fill="#0072B2" stroke="none"/>
<rect x="141.0" y="741.6" width="24.0" height="3.4" rx="2.0" fill="#E69F00" stroke="none"/>
<text x="138.0" y="763.0" font-family="Arial, Helvetica, sans-serif" font-size="10" font-weight="400" fill="#333333" text-anchor="middle">helpful</text>
<rect x="266.0" y="698.8" width="24.0" height="46.2" rx="2.0" fill="#0072B2" stroke="none"/>
<rect x="296.0" y="698.4" width="24.0" height="46.6" rx="2.0" fill="#E69F00" stroke="none"/>
<text x="293.0" y="763.0" font-family="Arial, Helvetica, sans-serif" font-size="10" font-weight="400" fill="#333333" text-anchor="middle">neutral/tie</text>
<rect x="421.0" y="721.7" width="24.0" height="23.3" rx="2.0" fill="#0072B2" stroke="none"/>
<rect x="451.0" y="517.2" width="24.0" height="227.8" rx="2.0" fill="#E69F00" stroke="none"/>
<text x="448.0" y="763.0" font-family="Arial, Helvetica, sans-serif" font-size="10" font-weight="400" fill="#333333" text-anchor="middle">harmful</text>
<rect x="450.0" y="500.0" width="10.0" height="10.0" rx="1.0" fill="#0072B2" stroke="none"/>
<text x="466.0" y="510.0" font-family="Arial, Helvetica, sans-serif" font-size="10" font-weight="400" fill="#333333" text-anchor="start">heading</text>
<rect x="450.0" y="517.0" width="10.0" height="10.0" rx="1.0" fill="#E69F00" stroke="none"/>
<text x="466.0" y="527.0" font-family="Arial, Helvetica, sans-serif" font-size="10" font-weight="400" fill="#333333" text-anchor="start">distance</text>
<text x="325.5" y="778.0" font-family="Arial, Helvetica, sans-serif" font-size="11" font-weight="400" fill="#333333" text-anchor="middle">axis regime rows (%)</text>
<rect x="610.0" y="440.0" width="555.0" height="350.0" rx="8.0" fill="#FFFFFF" stroke="#D0D7DE"/>
<text x="628.0" y="468.0" font-family="Arial, Helvetica, sans-serif" font-size="16" font-weight="700" fill="#333333" text-anchor="start">D. Representation true-vs-shuffle gap</text>
<line x1="668.0" y1="745.0" x2="1133.0" y2="745.0" stroke="#D0D7DE" stroke-width="1.0"/>
<line x1="668.0" y1="495.0" x2="668.0" y2="745.0" stroke="#D0D7DE" stroke-width="1.0"/>
<line x1="668.0" y1="745.0" x2="1133.0" y2="745.0" stroke="#E5E7EB" stroke-width="1.0"/>
<text x="660.0" y="749.0" font-family="Arial, Helvetica, sans-serif" font-size="10" font-weight="400" fill="#333333" text-anchor="end">0.00</text>
<line x1="668.0" y1="658.2" x2="1133.0" y2="658.2" stroke="#E5E7EB" stroke-width="1.0"/>
<text x="660.0" y="662.2" font-family="Arial, Helvetica, sans-serif" font-size="10" font-weight="400" fill="#333333" text-anchor="end">0.25</text>
<line x1="668.0" y1="571.4" x2="1133.0" y2="571.4" stroke="#E5E7EB" stroke-width="1.0"/>
<text x="660.0" y="575.4" font-family="Arial, Helvetica, sans-serif" font-size="10" font-weight="400" fill="#333333" text-anchor="end">0.50</text>
<line x1="668.0" y1="501.9" x2="1133.0" y2="501.9" stroke="#E5E7EB" stroke-width="1.0"/>
<text x="660.0" y="505.9" font-family="Arial, Helvetica, sans-serif" font-size="10" font-weight="400" fill="#333333" text-anchor="end">0.70</text>
<rect x="686.0" y="533.5" width="16.0" height="211.5" rx="2.0" fill="#0072B2" stroke="none"/>
<rect x="706.0" y="655.5" width="16.0" height="89.5" rx="2.0" fill="#009E73" stroke="none"/>
<rect x="726.0" y="540.2" width="16.0" height="204.8" rx="2.0" fill="#CC79A7" stroke="none"/>
<text x="745.5" y="763.0" font-family="Arial, Helvetica, sans-serif" font-size="10" font-weight="400" fill="#333333" text-anchor="middle">H8 val</text>
<rect x="841.0" y="536.9" width="16.0" height="208.1" rx="2.0" fill="#0072B2" stroke="none"/>
<rect x="861.0" y="637.2" width="16.0" height="107.8" rx="2.0" fill="#009E73" stroke="none"/>
<rect x="881.0" y="556.0" width="16.0" height="189.0" rx="2.0" fill="#CC79A7" stroke="none"/>
<text x="900.5" y="763.0" font-family="Arial, Helvetica, sans-serif" font-size="10" font-weight="400" fill="#333333" text-anchor="middle">H8 train</text>
<rect x="996.0" y="624.1" width="16.0" height="120.9" rx="2.0" fill="#0072B2" stroke="none"/>
<rect x="1016.0" y="669.0" width="16.0" height="76.0" rx="2.0" fill="#009E73" stroke="none"/>
<rect x="1036.0" y="538.3" width="16.0" height="206.7" rx="2.0" fill="#CC79A7" stroke="none"/>
<text x="1055.5" y="763.0" font-family="Arial, Helvetica, sans-serif" font-size="10" font-weight="400" fill="#333333" text-anchor="middle">Wbounded val</text>
<rect x="1001.0" y="500.0" width="10.0" height="10.0" rx="1.0" fill="#0072B2" stroke="none"/>
<text x="1016.0" y="510.0" font-family="Arial, Helvetica, sans-serif" font-size="10" font-weight="400" fill="#333333" text-anchor="start">heading_8bin</text>
<rect x="1001.0" y="517.0" width="10.0" height="10.0" rx="1.0" fill="#009E73" stroke="none"/>
<text x="1016.0" y="527.0" font-family="Arial, Helvetica, sans-serif" font-size="10" font-weight="400" fill="#333333" text-anchor="start">range_abs</text>
<rect x="1001.0" y="534.0" width="10.0" height="10.0" rx="1.0" fill="#CC79A7" stroke="none"/>
<text x="1016.0" y="544.0" font-family="Arial, Helvetica, sans-serif" font-size="10" font-weight="400" fill="#333333" text-anchor="start">range_signed</text>
<text x="900.5" y="778.0" font-family="Arial, Helvetica, sans-serif" font-size="11" font-weight="400" fill="#333333" text-anchor="middle">same-minus-diff gap</text>
</svg>